# xmcd CD database file
#
# Track frame offsets:
#	150
#	10508
#	20397
#	30830
#	39889
#	51363
#	63717
#	74141
#	87011
#	99003
#	110009
#	123206
#	134896
#	145206
#	158013
#	167595
#	183456
#	196691
#	211548
#	224221
#	234324
#	245718
#
# Disc length: 3423 seconds
#
# Revision: 0
# Processed by: cddbd v1.5.1PL2 Copyright (c) Steve Scherf et al.
# Submitted via: CDex 1.70beta2
#
DISCID=2d0d5d16
DTITLE=Various Artist - The Country Music Story
DYEAR=1900
DGENRE=Country
TTITLE0=Hello Walls (Faron YOung)
TTITLE1=Fraulein (Mickey Gilley)
TTITLE2=Wings of a Dove (Ferlin Husky
TTITLE3=Little Bitty Tear (Burl Ives)
TTITLE4=Single Girl (Sandy Posey)
TTITLE5=What in the world's come over you (Jack Scott)
TTITLE6=Six Days on the road (Dave Dudley)
TTITLE7=Rose Garden (Lynn Anderson)
TTITLE8=Okie From Muskogee (Merle Haggard)
TTITLE9=Honky Tonk Angels (Dolly Parton)
TTITLE10=Ruby, Don't Take your love to town (Kenny Rogers)
TTITLE11=Oh Lonesome Me (Don Gibson)
TTITLE12=My Last Date - with you (Skeeter Davis)
TTITLE13=Amanda (Don WIlliams)
TTITLE14=Kiss an Angel Good morning (Charley Pride)
TTITLE15=There Goes My Everything (Anne Murray)
TTITLE16=Detroit City (Bobby Bare)
TTITLE17=Coal Miner's Daughter (Loretta Lynn)
TTITLE18=She thinks I still care (George Jones)
TTITLE19=On the road again (Willie Nelson)
TTITLE20=King of the Road (Roger Miller)
TTITLE21=Hello Darlin' (Conway Twitty)
EXTD=
EXTT0=
EXTT1=
EXTT2=
EXTT3=
EXTT4=
EXTT5=
EXTT6=
EXTT7=
EXTT8=
EXTT9=
EXTT10=
EXTT11=
EXTT12=
EXTT13=
EXTT14=
EXTT15=
EXTT16=
EXTT17=
EXTT18=
EXTT19=
EXTT20=
EXTT21=
PLAYORDER=
